<svg width="101" height="139" viewBox="0 0 101 139" fill="none" xmlns="http://www.w3.org/2000/svg">
<path d="M99.3972 106.364C99.3932 106.364 99.3894 106.364 99.3855 106.364C98.8015 106.364 98.325 106.834 98.3187 107.419C98.2513 113.69 98.1163 118.369 97.9279 120.964C97.7061 121.883 95.5979 129.696 93.5192 134.166C93.5178 134.171 93.3653 134.709 93.1007 135.28C92.7605 136.015 92.4772 136.286 92.3761 136.343C91.0095 136.314 79.5054 134.718 73.0887 133.247C66.8185 131.81 59.2251 132.101 54.2002 132.294C52.7421 132.35 51.4829 132.398 50.4966 132.398C49.5104 132.398 48.2512 132.35 46.7931 132.294C41.7683 132.101 34.1748 131.81 27.904 133.247C21.4869 134.718 9.98246 136.315 8.61714 136.343C8.51761 136.287 8.23911 136.022 7.90353 135.304C7.63155 134.722 7.47535 134.17 7.47423 134.166C5.39523 129.697 3.28648 121.881 3.06549 120.964C2.23712 109.577 2.62001 62.6311 3.89161 50.0736C4.46478 44.4117 4.73883 36.3069 4.72935 25.2961C4.72887 24.7067 4.25061 24.2294 3.66137 24.23C3.07213 24.2305 2.59475 24.7086 2.59528 25.2979C2.60471 36.2357 2.33428 44.2696 1.76857 49.8586C0.566679 59.4585 0.0664787 111.094 0.94429 121.217C1.07921 121.891 3.06312 129.591 5.44467 134.829C5.87083 136.307 6.95215 138.536 8.58305 138.477C10.0569 138.477 21.9412 136.803 28.3807 135.327C34.3758 133.954 41.7992 134.238 46.7113 134.426C49.7997 134.561 51.1935 134.561 54.2819 134.426C59.194 134.238 66.6173 133.953 72.612 135.327C79.0515 136.803 90.9362 138.477 92.4102 138.477C94.0493 138.538 95.1273 136.286 95.5485 134.828C97.8513 129.857 99.931 121.746 100.019 121.401C100.279 118.581 100.363 113.996 100.453 107.442C100.459 106.853 99.9863 106.37 99.397 106.364L99.3972 106.364Z" fill="#1D5FAD"/>
<path d="M4.70617 19.9538C4.69384 18.3206 4.6786 16.7887 4.66527 15.4371C4.60296 9.49846 4.22375 6.44183 6.99341 2.86129L18.4652 3.52949C18.5827 3.5363 18.7004 3.52368 18.8138 3.49214L21.8037 2.65885C21.2745 4.27576 20.6655 6.65458 20.6655 9.03899C20.6655 12.9482 22.3815 40.941 22.474 42.4474C22.5984 45.6098 24.7383 49.4409 30.1152 49.39H70.8783C76.2697 49.4326 78.3808 45.6247 78.5194 42.4471C78.6121 40.9375 80.328 12.948 80.328 9.03899C80.328 6.65453 79.719 4.27576 79.1897 2.65885L82.1797 3.49214C82.2931 3.52374 82.4109 3.5363 82.5282 3.52949L93.9997 2.86129C96.764 6.4413 96.3913 9.46692 96.3286 15.3891C95.625 41.1307 98.6098 61.8965 98.3477 91.431C98.3511 92.0183 98.8281 92.4921 99.4146 92.4921C100.006 92.4923 100.485 92.0105 100.482 91.419C100.746 61.8819 97.7636 41.1834 98.4626 15.4102C98.4889 12.7499 98.5097 10.6488 98.4905 9.51399C98.4019 4.29799 95.3545 1.14781 95.2248 1.01621C95.0091 0.797412 94.7104 0.682172 94.4029 0.700075L82.5815 1.38867L77.7394 0.0391672C77.4903 -0.0302491 77.2302 -0.00564802 77.0044 0.0991582L77.0042 0.0989207C76.8042 0.191634 75.7573 0.760481 74.7844 2.86372C72.9473 6.5122 72.8162 13.4663 72.8492 18.9024C72.7592 28.73 72.6744 38.0126 72.062 40.4619C71.8864 41.1258 72.4159 41.7935 73.098 41.788C73.5761 41.788 74.0111 41.4644 74.1323 40.9796C74.9032 38.6033 74.9435 23.1637 75.027 14.351C75.0974 7.6685 76.2422 4.50653 77.078 3.08234C77.5727 4.54583 78.1939 6.82466 78.194 9.03893C78.1866 12.9592 76.4109 42.0568 76.386 42.4004C76.3858 42.4132 76.3652 43.6885 75.6622 44.9102C74.7664 46.4667 73.1569 47.2559 70.8783 47.2559H33.4361C30.1226 46.1485 29.7262 44.226 29.2276 41.8049C29.1374 41.3671 29.0442 40.9145 28.9311 40.4621C28.8307 40.0605 28.7384 39.424 28.657 38.5703C28.601 37.9836 28.0797 37.5534 27.4934 37.6094C26.9068 37.6654 26.4766 38.1863 26.5325 38.773C26.6254 39.7461 26.7328 40.4679 26.8608 40.9797C26.963 41.3888 27.0477 41.7999 27.1374 42.2353C27.4133 43.5753 27.6987 44.961 28.5126 46.2297C28.7405 46.585 29.0012 46.9143 29.2948 47.2192C27.4467 47.0473 26.1156 46.2728 25.3314 44.9102C24.6284 43.6886 24.6077 42.4132 24.6076 42.4055C24.5915 42.0499 22.8011 12.9695 22.7996 9.03899C22.7996 6.8246 23.4209 4.54577 23.9155 3.0824C24.7513 4.50659 25.8961 7.66856 25.9664 14.351C25.9825 15.88 25.9965 17.4089 26.0102 18.9184C26.0592 24.2925 26.1056 29.3685 26.2354 33.3711C26.2541 33.9484 26.7279 34.4036 27.3012 34.4036C27.3129 34.4036 27.3247 34.4034 27.3364 34.403C27.9255 34.3839 28.3874 33.8909 28.3683 33.3019C28.2393 29.3242 28.1931 24.2602 28.1442 18.8989C28.1304 17.3884 28.1164 15.8585 28.1004 14.3285C28.0476 9.31967 27.4114 5.46235 26.2092 2.86366C25.2366 0.761192 24.19 0.19199 23.9895 0.0990397L23.9893 0.0989207C23.7633 -0.00570762 23.5032 -0.0301898 23.2542 0.0391672L18.412 1.38867L6.59067 0.700075C6.28383 0.682232 5.98447 0.797352 5.76881 1.01615C5.63911 1.14769 2.59114 4.29799 2.50311 9.51381C2.47382 11.6992 2.55266 16.8085 2.57234 19.9698C2.64164 21.3882 4.66236 21.3654 4.70629 19.9536L4.70617 19.9538Z" fill="#1D5FAD"/>
<path d="M100.5 96.7592C100.499 96.1702 100.021 95.6932 99.4325 95.6932H99.4314C98.8421 95.6938 98.3649 96.172 98.3654 96.7613C98.3672 98.5421 98.3644 100.335 98.3572 102.091C98.3547 102.68 98.8304 103.16 99.4198 103.162C99.4213 103.162 99.4228 103.162 99.4243 103.162C100.011 103.162 100.489 102.688 100.491 102.1C100.498 100.34 100.501 98.5435 100.5 96.7592Z" fill="#1D5FAD"/>
<path d="M60.2879 129.118C70.2371 126.87 75.8191 123.921 82.0004 121.264C82.1347 121.207 82.256 121.124 82.357 121.019C84.3095 118.983 86.1769 115.711 87.9074 111.295C88.1224 110.746 87.8518 110.127 87.3032 109.912C86.7546 109.697 86.1354 109.967 85.9204 110.516C84.3379 114.555 82.671 117.538 80.9641 119.385C74.9615 121.996 69.7209 124.703 60.0482 127.011C58.8133 127.332 59.0326 129.09 60.2879 129.118Z" fill="#1D5FAD"/>
<path d="M9.54623 36.8305C9.52442 37.4194 9.98413 37.9145 10.573 37.9363C10.5865 37.9369 10.5998 37.9371 10.6132 37.9371C11.1842 37.9371 11.6575 37.485 11.6788 36.9096L11.7255 35.6579C11.9334 30.1067 12.1921 23.1982 12.0625 17.3263C12.0495 16.7372 11.5616 16.2707 10.9721 16.2831C10.383 16.2961 9.91596 16.7843 9.92888 17.3735C10.0571 23.1818 9.79971 30.0552 9.59295 35.5781L9.54623 36.8306V36.8305Z" fill="#1D5FAD"/>
<path d="M11.4394 50.3406C12.2242 50.3515 12.7592 49.4767 12.3854 48.7815C11.9205 47.8864 11.6212 43.9516 11.687 42.048C11.7074 41.459 11.2464 40.965 10.6575 40.9447C10.0679 40.9243 9.57456 41.3853 9.55429 41.9743C9.51326 43.1628 9.64332 48.132 10.4916 49.7652C10.6816 50.131 11.0538 50.3406 11.4394 50.3406Z" fill="#1D5FAD"/>
</svg>
