<svg width="21" height="21" viewBox="0 0 21 21" fill="none" xmlns="http://www.w3.org/2000/svg">
<g clip-path="url(#clip0_55_64)">
<path d="M13.6875 9.52039H7.3125C6.9375 9.52039 6.625 9.83289 6.625 10.2391C6.625 10.6141 6.9375 10.9266 7.34375 10.9266H13.7187C14.0937 10.9266 14.4062 10.6141 14.4062 10.2079C14.375 9.83289 14.0625 9.52039 13.6875 9.52039Z" fill="white"/>
<path d="M10.5 0.801636C5.28125 0.801636 1.0625 5.02039 1.0625 10.2391C1.0625 15.4579 5.3125 19.7079 10.5312 19.7079C15.75 19.7079 20 15.4579 20 10.2391C19.9688 5.02039 15.7188 0.801636 10.5 0.801636ZM10.5 18.3016C6.0625 18.3016 2.46875 14.6766 2.46875 10.2391C2.46875 5.80164 6.0625 2.20789 10.5 2.20789C14.9375 2.20789 18.5625 5.83289 18.5625 10.2704C18.5625 14.6766 14.9375 18.3016 10.5 18.3016Z" fill="white"/>
</g>
<defs>
<clipPath id="clip0_55_64">
<rect width="20" height="20" fill="white" transform="translate(0.5 0.239136)"/>
</clipPath>
</defs>
</svg>
