<svg width="70" height="40" viewBox="0 0 70 40" fill="none" xmlns="http://www.w3.org/2000/svg">
<g clip-path="url(#clip0_18_117)">
<path d="M36.3162 16.8974C37.2713 16.8904 37.6731 17.8075 37.6845 18.7074C37.6845 18.7164 37.7057 18.9335 37.7219 19.4116H39.9663C39.9602 19.2484 39.9538 19.1112 39.9476 19.0291C39.6922 15.6144 37.8008 14.7861 36.31 14.7861C34.1994 14.7861 32.9126 16.2661 32.6799 19.0601C32.661 19.2835 32.631 19.6941 32.6185 21.0095C32.6097 21.9673 32.6648 22.7534 32.6761 22.9539C32.8225 25.5599 34.1819 27.1604 36.31 27.1674C38.5181 27.1756 39.7347 25.6942 39.9476 22.9525C39.9538 22.8506 39.9663 22.783 39.9602 22.7141H37.7144C37.7057 22.8961 37.6932 23.0579 37.6845 23.1723C37.6206 24.0852 37.3289 25.0576 36.3162 25.0576C35.3698 25.0576 34.9968 24.0055 34.9281 23.2303C34.8867 22.7589 34.8954 22.3951 34.8879 21.0095C34.8766 19.395 34.923 18.9795 34.9455 18.7164C35.0244 17.696 35.3849 16.9042 36.3162 16.8974ZM22.1825 21.8378C22.1825 21.8378 22.4153 25.883 22.4153 25.8817C22.4329 26.4535 22.5293 26.9021 22.5293 26.9021H20.2886C20.2886 26.9021 20.1935 26.4377 20.1759 25.8961L19.9431 22.0692C19.8192 20.1185 19.0067 19.4247 18.2857 19.4247H17.0378L17.0364 26.9006H14.7958V10.554L18.2645 10.5554C20.3887 10.5823 22.1925 11.704 22.2038 14.9019C22.2113 17.0026 21.4165 18.0094 20.8031 18.4152C21.653 18.9616 22.0811 20.0269 22.1825 21.8378ZM19.9431 15.3291C19.9506 15.2436 19.9543 15.1658 19.9543 14.9439C19.9543 14.7537 19.9443 14.6538 19.9419 14.5628C19.913 13.3453 19.2797 12.6639 18.1117 12.6639H17.0378V17.3149H18.2219C19.5888 17.3149 19.878 16.0519 19.9431 15.3291ZM57.4773 20.2736C57.4911 20.7731 57.4824 21.6014 57.4824 21.6014H52.4201C52.4176 22.6128 52.4627 22.9098 52.4752 23.1792C52.538 24.1156 52.8983 25.0588 53.8396 25.0588C54.945 25.0588 55.154 23.8166 55.2167 23.2358C55.2429 23.0098 55.2392 22.8278 55.2392 22.8278H57.4172C57.2746 25.5599 55.8964 27.1681 53.8396 27.1681C51.7793 27.1681 50.4011 25.5185 50.2646 22.9532C50.2533 22.77 50.2058 21.9666 50.2058 21.0088C50.2058 19.6625 50.2434 19.311 50.2671 19.063C50.5175 16.2517 51.7955 14.7868 53.8396 14.7868C54.9049 14.7868 55.8037 15.2429 56.4396 16.1062C56.9892 16.8512 57.3485 18.0088 57.4172 19.0642C57.4598 19.7513 57.4685 20.0773 57.4773 20.2736ZM55.2679 19.5267C55.2718 19.2841 55.2492 19.0541 55.2291 18.7144C55.1902 18.0625 54.935 16.8883 53.8459 16.8967C52.9259 16.9034 52.5266 17.7207 52.4627 18.7089C52.4527 18.8665 52.4527 18.9809 52.4351 19.5267H55.2679ZM27.4549 14.7868C28.9458 14.7868 30.7609 15.5447 31.0826 19.0649C31.1126 19.3972 31.1476 20.5754 31.1476 21.0095C31.1476 21.9666 31.1001 22.7678 31.0888 22.9532C30.9412 25.5324 29.5842 27.1681 27.4549 27.1681C25.3244 27.1681 23.9662 25.5591 23.8198 22.9546C23.8098 22.7541 23.7535 21.9666 23.7622 21.0095C23.7723 19.6948 23.806 19.2841 23.8235 19.0595C24.0551 16.2655 25.3419 14.7868 27.4549 14.7868ZM28.8293 23.2159C28.8406 23.0759 28.887 22.6212 28.887 21.0095C28.887 19.3944 28.8293 18.7226 28.8293 18.7081C28.8181 17.8068 28.3887 16.8979 27.4587 16.8979C26.5287 16.8979 26.1006 17.8068 26.088 18.7149C26.088 18.7226 26.0305 19.3944 26.0305 21.0095C26.0305 22.6212 26.0868 23.1674 26.088 23.173C26.1293 24.0467 26.5124 25.0584 27.4587 25.0584C28.405 25.0584 28.7518 24.1103 28.8293 23.2159ZM47.353 15.3525C48.3807 16.1932 48.6474 16.9966 48.6474 19.2497V26.9013H46.3766L46.3792 19.3476C46.3792 18.6744 46.3967 18.0631 46.115 17.6002C45.8497 17.1646 45.3277 16.9848 44.9522 17.0034C44.1059 17.0426 43.6478 17.7035 43.6478 18.3015V26.9013H41.3771V10.4259H43.6478V15.4779C44.131 15.0534 44.8258 14.7951 45.553 14.7848C46.2226 14.7751 46.9124 14.9928 47.353 15.3525ZM54.3654 8.96874e-05H15.6909L0 20.0634L15.6921 40H54.3629L70 20.1303L54.3654 8.96874e-05ZM53.4766 38.1107H16.5808L2.42214 20.1269L16.5822 2.01827H53.4729L67.5791 20.1881L53.4766 38.1107Z" fill="#1D5FAD"/>
</g>
<defs>
<clipPath id="clip0_18_117">
<rect width="70" height="40" fill="white"/>
</clipPath>
</defs>
</svg>
